<svg xmlns="http://www.w3.org/2000/svg" width="400" height="300" viewBox="0 0 400 300">
<!-- A CCC worker resting on a bench in the shade of a tree, gloves off beside her, a water bottle in her hand. Drawn for the CCC Team Portal, no text. -->
<defs><radialGradient id="whE_r1" cx="0.5" cy="0.5" r="0.5"><stop offset="0" stop-color="#FFF6D6"/><stop offset="0.6" stop-color="#FFCB8E"/><stop offset="1" stop-color="#F6A078"/></radialGradient><linearGradient id="whE_polo" x1="0" y1="-140" x2="0" y2="-70" gradientUnits="userSpaceOnUse"><stop offset="0" stop-color="#B9BBC6"/><stop offset="1" stop-color="#8D8F9C"/></linearGradient></defs>
<rect width="400" height="300" fill="#FFEBCF"/>
<path d="M381 50L395.3 50M376.8 65.5L385.5 70.5M365.5 76.8L372.6 89.2M350 81L350 91M334.5 76.8L327.4 89.2M323.2 65.5L314.5 70.5M319 50L304.7 50M323.2 34.5L314.5 29.5M334.5 23.2L327.3 10.8M350 19L350 9M365.5 23.2L372.6 10.8M376.8 34.5L385.5 29.5" stroke="#FFCB8E" stroke-width="4.2" stroke-linecap="round"/><circle cx="350" cy="50" r="26" fill="url(#whE_r1)"/>
<path d="M0 0H250C236 90 260 180 300 300H0Z" fill="#D6EAFD"/>
<rect y="252" width="400" height="48" fill="#FEF1EA"/><path d="M0 252H400" stroke="#1B175A" stroke-width="3"/>
<ellipse cx="140" cy="262" rx="130" ry="12" fill="#82CAFB" opacity=".8"/>
<path d="M54.5 256C55.9 215.5 53.2 185.8 57.2 161.5H70.8C74.8 185.8 72.1 215.5 73.5 256Z" fill="#3B3685" stroke="#1B175A" stroke-width="4.1" stroke-linejoin="round"/><path d="M-14.3 150.7C-33.2 107.5 10 67 50.5 77.8C82.9 45.4 147.7 67 145 110.2C174.7 131.8 147.7 175 109.9 166.9C77.5 185.8 4.6 185.8 -14.3 150.7Z" fill="#4E9FE0" stroke="#1B175A" stroke-width="4.1" stroke-linejoin="round"/><path d="M10 126.4C10 99.4 34.3 85.9 55.9 91.3C74.8 69.7 109.9 72.4 120.7 91.3" fill="none" stroke="#82CAFB" stroke-width="6.8" stroke-linecap="round" opacity=".9"/>
<rect x="85" y="216" width="170" height="9" rx="3" fill="#F6A078" stroke="#1B175A" stroke-width="3"/><path d="M97 225v29M243 225v29" stroke="#1B175A" stroke-width="5" stroke-linecap="round"/>
<g transform="translate(150 258) scale(1.1)"><g transform="translate(0 34)"><g transform="rotate(0 0 -145)"><path d="M-23 -160C-27 -192 27 -192 23 -160L28 -122C12 -116 -12 -116 -28 -122Z" fill="#1D1412" stroke="#1B175A" stroke-width="2.4" stroke-linejoin="round"/></g></g><path d="M-26 -46H26L29 -30L26 -4H6L4 -26H-4L-6 -4H-26L-29 -30Z" fill="#2E2A6E" stroke="#1B175A" stroke-width="2.5" stroke-linejoin="round"/><ellipse cx="-16" cy="-3" rx="12" ry="5.5" fill="#FFFCFC" stroke="#1B175A" stroke-width="2.4"/><ellipse cx="16" cy="-3" rx="12" ry="5.5" fill="#FFFCFC" stroke="#1B175A" stroke-width="2.4"/><g transform="translate(0 34)"><rect x="-7.5" y="-145" width="15" height="16" rx="4" fill="#8A5A38" stroke="#1B175A" stroke-width="2.2"/><path d="M-30 -122C-31 -133 -26 -137 -19 -138L-9 -140L0 -131L9 -140L19 -138C26 -137 31 -133 30 -122L27 -76H-27Z" fill="url(#whE_polo)" stroke="#1B175A" stroke-width="2.5" stroke-linejoin="round"/><path d="M-9.5 -140.5L0 -131L-4 -123L-14.5 -134.5ZM9.5 -140.5L0 -131L4 -123L14.5 -134.5Z" fill="#CBCDD6" stroke="#1B175A" stroke-width="2" stroke-linejoin="round"/><path d="M0 -131V-111" stroke="#1B175A" stroke-width="1.6" opacity=".7"/><circle cx="0" cy="-124" r="1.4" fill="#1B175A"/><circle cx="0" cy="-116.5" r="1.4" fill="#1B175A"/><path d="M-27 -80H27" stroke="#1B175A" stroke-width="2" opacity=".35"/><path d="M9.5 -120.8L11.5 -123L16.5 -123L18.5 -120.8L14 -115.6Z" fill="#1B175A" stroke-linejoin="round"/><path d="M9.5 -120.8H18.5M12.6 -120.8L14 -115.6L15.4 -120.8" fill="none" stroke="#8D8F9C" stroke-width="0.6" opacity=".55"/><path d="M-27 -128L-34 -102L-16 -80" fill="none" stroke="#1B175A" stroke-width="15.5" stroke-linecap="round" stroke-linejoin="round"/><path d="M-27 -128L-34 -102L-16 -80" fill="none" stroke="#A8744C" stroke-width="10.5" stroke-linecap="round" stroke-linejoin="round"/><path d="M-27 -128L-30.1 -116.3" fill="none" stroke="#1B175A" stroke-width="20" stroke-linecap="round"/><path d="M-27 -128L-30.1 -116.3" fill="none" stroke="url(#whE_polo)" stroke-width="15" stroke-linecap="round"/><g transform="translate(-14 -64) rotate(-18)"><rect x="-4.3" y="-45.6" width="8.5" height="7.6" rx="1.9" fill="#1B175A" stroke="#1B175A" stroke-width="2.5"/><path d="M-5.7 -38.9C-5.7 -35.1 -10.4 -33.2 -10.4 -27.5V0H10.4V-27.5C10.4 -33.2 5.7 -35.1 5.7 -38.9Z" fill="#D6EAFD" stroke="#1B175A" stroke-width="2.5" stroke-linejoin="round"/><rect x="-8.1" y="-22.8" width="16.1" height="19.9" rx="2.8" fill="#82CAFB"/><path d="M-4.3 -25.6v17.1" stroke="#FFFCFC" stroke-width="2.3" stroke-linecap="round" opacity=".8"/></g><circle cx="-16" cy="-80" r="6.8" fill="#A8744C" stroke="#1B175A" stroke-width="2.4"/><path d="M27 -128L33 -104L34 -82" fill="none" stroke="#1B175A" stroke-width="15.5" stroke-linecap="round" stroke-linejoin="round"/><path d="M27 -128L33 -104L34 -82" fill="none" stroke="#A8744C" stroke-width="10.5" stroke-linecap="round" stroke-linejoin="round"/><path d="M27 -128L29.7 -117.2" fill="none" stroke="#1B175A" stroke-width="20" stroke-linecap="round"/><path d="M27 -128L29.7 -117.2" fill="none" stroke="url(#whE_polo)" stroke-width="15" stroke-linecap="round"/><circle cx="34" cy="-82" r="6.8" fill="#A8744C" stroke="#1B175A" stroke-width="2.4"/><g transform="rotate(0 0 -145)"><circle cx="-21" cy="-157" r="4.6" fill="#A8744C" stroke="#1B175A" stroke-width="2.2"/><circle cx="21" cy="-157" r="4.6" fill="#A8744C" stroke="#1B175A" stroke-width="2.2"/><circle cx="0" cy="-160" r="21.5" fill="#A8744C" stroke="#1B175A" stroke-width="2.5"/><ellipse cx="-7.5" cy="-159" rx="2" ry="2.7" fill="#1B175A"/><ellipse cx="7.5" cy="-159" rx="2" ry="2.7" fill="#1B175A"/><path d="M-10.5 -166.5Q-7.5 -169 -4.5 -167M4.5 -167Q7.5 -169 10.5 -166.5" fill="none" stroke="#1B175A" stroke-width="1.7" stroke-linecap="round"/><path d="M-4.5 -149.5Q0 -146.5 4.5 -149.5" fill="none" stroke="#1B175A" stroke-width="2" stroke-linecap="round" stroke-linejoin="round"/><circle cx="-12.5" cy="-151" r="3.6" fill="#F6A078" opacity=".45"/><circle cx="12.5" cy="-151" r="3.6" fill="#F6A078" opacity=".45"/><path d="M-21.6 -153C-25 -180 -9 -187.5 2 -187.5C15 -187.5 25 -178 21.6 -153C20 -163 15 -170 7 -172C1 -165 -10 -162 -21.6 -153Z" fill="#1D1412" stroke="#1B175A" stroke-width="2.4" stroke-linejoin="round"/></g></g></g>
<g transform="translate(236 212) rotate(88) scale(0.8)"><path d="M-9 0V-16C-14-18-16-24-12-26L-9-24V-34C-9-38-3-38-3-34V-24V-38C-3-42 3-42 3-38V-24V-36C3-40 9-40 9-36V-22V-30C9-34 15-34 15-30V-12C15-4 11 0 9 0Z" fill="#4E9FE0" stroke="#1B175A" stroke-width="2.5" stroke-linejoin="round"/><rect x="-11" y="-2" width="22" height="9" rx="3" fill="#FFFCFC" stroke="#1B175A" stroke-width="2.5"/></g>
<g transform="translate(226 206) rotate(96) scale(0.8)"><path d="M-9 0V-16C-14-18-16-24-12-26L-9-24V-34C-9-38-3-38-3-34V-24V-38C-3-42 3-42 3-38V-24V-36C3-40 9-40 9-36V-22V-30C9-34 15-34 15-30V-12C15-4 11 0 9 0Z" fill="#82CAFB" stroke="#1B175A" stroke-width="2.5" stroke-linejoin="round"/><rect x="-11" y="-2" width="22" height="9" rx="3" fill="#FFFCFC" stroke="#1B175A" stroke-width="2.5"/></g>
<path d="M210 120h40a6 6 0 1 0 -6 -6M210 132h32.8a6 6 0 1 0 -6 -6M210 144h40a6 6 0 1 0 -6 -6" fill="none" stroke="#4E9FE0" stroke-width="3" stroke-linecap="round"/>
</svg>
