<svg xmlns="http://www.w3.org/2000/svg" width="400" height="300" viewBox="0 0 400 300">
<!-- A small sprout under a sun, and days drawn as bars that grow a little each day. Drawn for the CCC Team Portal, no text. -->
<defs><linearGradient id="whH_l1" x1="0" y1="0" x2="0" y2="300" gradientUnits="userSpaceOnUse"><stop offset="0" stop-color="#FFEBCF"/><stop offset="1" stop-color="#FFFCFC"/></linearGradient><radialGradient id="whH_r2" cx="0.5" cy="0.5" r="0.5"><stop offset="0" stop-color="#FFF6D6"/><stop offset="0.6" stop-color="#FFCB8E"/><stop offset="1" stop-color="#F6A078"/></radialGradient></defs>
<rect width="400" height="300" fill="url(#whH_l1)"/>
<path d="M95 56L110.4 56M90.6 72.5L99.9 77.9M78.5 84.6L86.2 97.9M62 89L62 99.8M45.5 84.6L37.8 97.9M33.4 72.5L24.1 77.9M29 56L13.6 56M33.4 39.5L24.1 34.1M45.5 27.4L37.8 14.1M62 23L62 12.2M78.5 27.4L86.2 14.1M90.6 39.5L99.9 34.1" stroke="#FFCB8E" stroke-width="4.5" stroke-linecap="round"/><circle cx="62" cy="56" r="28" fill="url(#whH_r2)"/>
<rect y="254" width="400" height="46" fill="#FEF1EA"/><path d="M0 254H400" stroke="#1B175A" stroke-width="3"/>
<rect x="160" y="218" width="32" height="42" rx="7" fill="#82CAFB" stroke="#1B175A" stroke-width="3"/>
<path d="M169 201.4L172.1 198L179.9 198L183 201.4L176 209.5Z" fill="#FFFCFC" stroke="#1B175A" stroke-width="2.2" stroke-linejoin="round"/>
<rect x="204" y="196" width="32" height="64" rx="7" fill="#A8D7F4" stroke="#1B175A" stroke-width="3"/>
<path d="M213 179.4L216.1 176L223.9 176L227 179.4L220 187.5Z" fill="#FFFCFC" stroke="#1B175A" stroke-width="2.2" stroke-linejoin="round"/>
<rect x="248" y="170" width="32" height="90" rx="7" fill="#FFCB8E" stroke="#1B175A" stroke-width="3"/>
<path d="M257 153.4L260.1 150L267.9 150L271 153.4L264 161.5Z" fill="#FFFCFC" stroke="#1B175A" stroke-width="2.2" stroke-linejoin="round"/>
<rect x="292" y="142" width="32" height="118" rx="7" fill="#F9B98E" stroke="#1B175A" stroke-width="3"/>
<path d="M301 125.4L304.1 122L311.9 122L315 125.4L308 133.5Z" fill="#FFFCFC" stroke="#1B175A" stroke-width="2.2" stroke-linejoin="round"/>
<rect x="336" y="110" width="32" height="150" rx="7" fill="#F6A078" stroke="#1B175A" stroke-width="3"/>
<path d="M345 93.4L348.1 90L355.9 90L359 93.4L352 101.5Z" fill="#FFFCFC" stroke="#1B175A" stroke-width="2.2" stroke-linejoin="round"/>
<path d="M160 118Q250 60 360 70" fill="none" stroke="#1B175A" stroke-width="3" stroke-dasharray="2 9" stroke-linecap="round" opacity=".6"/>
<path d="M352 60l12 10l-14 6" fill="none" stroke="#1B175A" stroke-width="3" stroke-linecap="round" stroke-linejoin="round" opacity=".6"/>
<path d="M72 254L64 212H122L114 254Z" fill="#F6A078" stroke="#1B175A" stroke-width="3" stroke-linejoin="round"/>
<rect x="58" y="202" width="70" height="14" rx="5" fill="#E9845A" stroke="#1B175A" stroke-width="3"/>
<path d="M93 202V160" stroke="#1B175A" stroke-width="4" stroke-linecap="round"/>
<path d="M93 176C80 178 68 170 66 156C80 154 92 162 93 176Z" fill="#4E9FE0" stroke="#1B175A" stroke-width="3" stroke-linejoin="round"/>
<path d="M93 164C104 166 118 158 120 142C104 140 94 150 93 164Z" fill="#82CAFB" stroke="#1B175A" stroke-width="3" stroke-linejoin="round"/>
<path d="M136 105L137.4 108.6L141 110L137.4 111.4L136 115L134.6 111.4L131 110L134.6 108.6Z" fill="#F6A078"/>
<path d="M24 146L25.1 148.9L28 150L25.1 151.1L24 154L22.9 151.1L20 150L22.9 148.9Z" fill="#F2AE5C"/>
</svg>
