<svg xmlns="http://www.w3.org/2000/svg" width="400" height="300" viewBox="0 0 400 300">
<!-- A made bed with nothing to see on it, and a guest suitcase beside it. Bed bugs presentation, CCC Team Portal. Flat vector, no text. -->
<rect x="0" y="0" width="400" height="236" fill="#ECEAF2"/><rect x="0" y="236" width="400" height="64" fill="#CFE3FA"/><path d="M0 262 H400 M0 288 H400" fill="none" stroke="#FFFCFC" stroke-width="2" opacity=".7"/><rect x="0" y="231" width="400" height="8" fill="#1B175A"/>
<rect x="150" y="40" width="104" height="88" rx="6" fill="#B9DFFC" stroke="#1B175A" stroke-width="5"/><rect x="157" y="47" width="42" height="74" rx="2" fill="#82CAFB"/><rect x="205" y="47" width="42" height="74" rx="2" fill="#82CAFB"/><path d="M169.2 77.4 a7 7 0 0 1 13 -3 a6 6 0 0 1 11 3 z" fill="#FFFCFC" opacity=".9"/><path d="M202 44 L202 124" fill="none" stroke="#1B175A" stroke-width="4" stroke-linecap="round" stroke-linejoin="round"/><rect x="142" y="126" width="120" height="8" rx="3" fill="#FFFCFC" stroke="#1B175A" stroke-width="3.5"/><path d="M136 32 Q158 84 146 138 Q130 84 136 32 Z" fill="#F6A078" stroke="#1B175A" stroke-width="3.5" stroke-linecap="round" stroke-linejoin="round"/><path d="M268 32 Q246 84 258 138 Q274 84 268 32 Z" fill="#F6A078" stroke="#1B175A" stroke-width="3.5" stroke-linecap="round" stroke-linejoin="round"/><rect x="128" y="27" width="148" height="6" rx="3" fill="#1B175A"/>
<circle cx="44" cy="158" r="34" fill="#FFCB8E" opacity=".35"/><rect x="20" y="250" width="6" height="12" rx="2" fill="#1B175A"/><rect x="62" y="250" width="6" height="12" rx="2" fill="#1B175A"/><rect x="14" y="196" width="60" height="56" rx="5" fill="#FFCB8E" stroke="#1B175A" stroke-width="4"/><path d="M16 222 H72" fill="none" stroke="#1B175A" stroke-width="3" stroke-linecap="round" stroke-linejoin="round"/><circle cx="44" cy="209" r="3" fill="#1B175A"/><circle cx="44" cy="236" r="3" fill="#1B175A"/><rect x="30" y="190" width="28" height="7" rx="3" fill="#1B175A"/><rect x="41" y="166" width="6" height="26" fill="#1B175A"/><path d="M28 170 L60 170 L54 142 L34 142 Z" fill="#F6A078" stroke="#1B175A" stroke-width="3.5" stroke-linecap="round" stroke-linejoin="round"/>
<path d="M100 250 V110 Q100 96 114 96 Q128 96 128 110 V250 Z" fill="#FFCB8E" stroke="#1B175A" stroke-width="4" stroke-linecap="round" stroke-linejoin="round"/><path d="M114 112 V158" fill="none" stroke="#F2B774" stroke-width="3" stroke-linecap="round" stroke-linejoin="round"/><rect x="116" y="246" width="8" height="16" rx="2" fill="#1B175A"/><rect x="302" y="246" width="8" height="16" rx="2" fill="#1B175A"/><rect x="110" y="226" width="208" height="22" rx="4" fill="#FFCB8E" stroke="#1B175A" stroke-width="4"/><rect x="122" y="200" width="192" height="26" rx="6" fill="#CFE3FA" stroke="#1B175A" stroke-width="4"/><path d="M130 205 H306 M130 221 H306" fill="none" stroke="#6BA9F8" stroke-width="2.2" stroke-linecap="round" stroke-linejoin="round"/><rect x="122" y="162" width="192" height="38" rx="12" fill="#FFFCFC" stroke="#1B175A" stroke-width="4"/><path d="M132 167 H304 M132 195 H304" fill="none" stroke="#82CAFB" stroke-width="3.2" stroke-linecap="round" stroke-linejoin="round"/><path d="M134 181 H302" fill="none" stroke="#B9DFFC" stroke-width="2" stroke-linecap="round" stroke-linejoin="round" stroke-dasharray="5 6"/><path d="M132 162 C126 142 140 135 168 137 C194 139 202 148 198 162 Z" fill="#FFFCFC" stroke="#1B175A" stroke-width="3.5" stroke-linecap="round" stroke-linejoin="round"/><path d="M148 150 Q166 146 182 152" fill="none" stroke="#B9DFFC" stroke-width="2" stroke-linecap="round" stroke-linejoin="round"/><path d="M180 162 C176 150 184 144 200 145 C216 146 222 152 218 162 Z" fill="#F6A078" stroke="#1B175A" stroke-width="3.2" stroke-linecap="round" stroke-linejoin="round"/><path d="M206 158 H316 Q323 158 323 166 V204 Q323 211 315 211 H214 Q206 211 206 203 Z" fill="#FAD3BD" stroke="#1B175A" stroke-width="4" stroke-linecap="round" stroke-linejoin="round"/><path d="M206 162 V207" fill="none" stroke="#FFFCFC" stroke-width="9"/><path d="M220 184 H318" fill="none" stroke="#1B175A" stroke-width="2" stroke-linecap="round" stroke-linejoin="round" opacity=".18"/><path d="M220 198 H318" fill="none" stroke="#1B175A" stroke-width="2" stroke-linecap="round" stroke-linejoin="round" opacity=".18"/>
<path d="M346.6 168 V142 H367.4 V168" fill="none" stroke="#1B175A" stroke-width="4.5" stroke-linecap="round" stroke-linejoin="round"/><rect x="344.2" y="136" width="25.5" height="9" rx="4" fill="#1B175A"/><circle cx="340" cy="257" r="6" fill="#1B175A"/><circle cx="374" cy="257" r="6" fill="#1B175A"/><rect x="328" y="166" width="58" height="90" rx="11" fill="#1B175A" stroke="#1B175A" stroke-width="4"/><path d="M345.4 180 V244" fill="none" stroke="#1B175A" stroke-width="2.4" stroke-linecap="round" stroke-linejoin="round" opacity=".28"/><path d="M357 180 V244" fill="none" stroke="#1B175A" stroke-width="2.4" stroke-linecap="round" stroke-linejoin="round" opacity=".28"/><path d="M368.6 180 V244" fill="none" stroke="#1B175A" stroke-width="2.4" stroke-linecap="round" stroke-linejoin="round" opacity=".28"/><rect x="334" y="172" width="46" height="78" rx="7" fill="none" stroke="#1B175A" stroke-width="1.6" stroke-dasharray="3 3" opacity=".55"/>
<path d="M344 176 H370" fill="none" stroke="#FFFCFC" stroke-width="3" stroke-linecap="round" stroke-linejoin="round" opacity=".5"/>
<path d="M300 38 L302.2 43.8 L308 46 L302.2 48.2 L300 54 L297.8 48.2 L292 46 L297.8 43.8 Z" fill="#F6A078"/><path d="M380 104 L381.7 108.3 L386 110 L381.7 111.7 L380 116 L378.3 111.7 L374 110 L378.3 108.3 Z" fill="#82CAFB"/><path d="M96 38 L97.7 42.3 L102 44 L97.7 45.7 L96 50 L94.3 45.7 L90 44 L94.3 42.3 Z" fill="#82CAFB"/>
</svg>
