<svg xmlns="http://www.w3.org/2000/svg" width="400" height="300" viewBox="0 0 400 300">
<!-- Before you start: a cleaner in the grey CCC polo reads the training on her phone at a sunny doorway. Flat vector, no text. -->
<defs><linearGradient id="sflSt_po" x1="0" y1="0" x2="0" y2="1"><stop offset="0" stop-color="#BCBECA"/><stop offset="1" stop-color="#8F919E"/></linearGradient></defs>
<rect x="0" y="0" width="400" height="236" fill="#F3F0F8"/><rect x="0" y="236" width="400" height="64" fill="#DCEAF8"/><rect x="0" y="231" width="400" height="6" fill="#FFFCFC"/><path d="M0 236.5 L400 236.5" fill="none" stroke="#1B175A" stroke-width="3" stroke-linecap="round" stroke-linejoin="round"/>
<rect x="34" y="50" width="92" height="186" rx="4" fill="#FFFCFC" stroke="#1B175A" stroke-width="3"/>
<rect x="40" y="56" width="80" height="180" fill="#D9EEFE"/>
<circle cx="92" cy="92" r="15" fill="#FFCB8E"/>
<path d="M40 196C62 186 88 188 120 198V236H40Z" fill="#BFE3FB"/>
<path d="M40 212C66 204 96 206 120 214V236H40Z" fill="#A8D8FA"/>
<path d="M40 56 L64 66 L64 228 L40 236Z" fill="#FFFCFC" stroke="#1B175A" stroke-width="3" stroke-linejoin="round"/>
<circle cx="58" cy="150" r="2.8" fill="#1B175A"/>
<path d="M40 236H120L176 300H26Z" fill="#FFCB8E" fill-opacity=".35"/>
<rect x="306" y="64" width="56" height="42" rx="4" fill="#FFFCFC" stroke="#1B175A" stroke-width="3"/>
<path d="M312 98L324 82L334 92L342 84L356 98Z" fill="#82CAFB"/>
<circle cx="348" cy="76" r="5" fill="#F6A078"/>
<g transform="translate(366 264) scale(1)"><path d="M0 -8C-14 -30 -26 -34 -30 -52C-16 -46 -6 -34 0 -8Z" fill="#9ED3F9" stroke="#1B175A" stroke-width="2.4" stroke-linejoin="round"/><path d="M0 -8C10 -34 22 -44 32 -58C34 -40 20 -24 0 -8Z" fill="#82CAFB" stroke="#1B175A" stroke-width="2.4" stroke-linejoin="round"/><path d="M0 -8C-2 -34 2 -54 8 -70C14 -50 10 -30 0 -8Z" fill="#B7DDFB" stroke="#1B175A" stroke-width="2.4" stroke-linejoin="round"/><path d="M-15 -10H15L11 18H-11Z" fill="#F6A078" stroke="#1B175A" stroke-width="2.8" stroke-linejoin="round"/><rect x="-17" y="-14" width="34" height="7" rx="2" fill="#F9B795" stroke="#1B175A" stroke-width="2.4"/></g>
<path d="M154 238C154 214 190 214 190 238" fill="none" stroke="#1B175A" stroke-width="3.2"/>
<rect x="160" y="212" width="9" height="20" rx="2" fill="#82CAFB" stroke="#1B175A" stroke-width="2.4"/>
<path d="M160 212h7l3 -6h-10z" fill="#1B175A"/>
<rect x="175" y="218" width="10" height="16" rx="3" fill="#F6A078" stroke="#1B175A" stroke-width="2.4"/>
<path d="M146 234H198L194 264H150Z" fill="#FDE5D8" stroke="#1B175A" stroke-width="3" stroke-linejoin="round"/>
<path d="M148 244 L196 244" fill="none" stroke="#F4BFA3" stroke-width="2.5" stroke-linecap="round" stroke-linejoin="round"/>
<g transform="translate(246 255) scale(1.1) translate(-246 -255)"><path d="M230 110 L220 138 L238 146" fill="none" stroke="#1B175A" stroke-width="15" stroke-linecap="round" stroke-linejoin="round"/><path d="M230 110 L220 138 L238 146" fill="none" stroke="#C48C64" stroke-width="10" stroke-linecap="round" stroke-linejoin="round"/><path d="M230 110 L224.5 125.4" fill="none" stroke="#1B175A" stroke-width="20" stroke-linecap="round" stroke-linejoin="round"/><path d="M230 110 L224.5 125.4" fill="none" stroke="#A9ABB8" stroke-width="15" stroke-linecap="round" stroke-linejoin="round"/><circle cx="238" cy="146" r="6.3" fill="#C48C64" stroke="#1B175A" stroke-width="2.6"/><path d="M238 164 L236 206 L234 247" fill="none" stroke="#1B175A" stroke-width="21" stroke-linecap="round" stroke-linejoin="round"/><path d="M238 164 L236 206 L234 247" fill="none" stroke="#3B3E5A" stroke-width="16" stroke-linecap="round" stroke-linejoin="round"/><g transform="translate(234 248) scale(-1 1) rotate(0)"><path d="M-7 -7C-6 -10 3 -10 6 -7L14 -4C19 -3 21 1 20 4L-9 4C-10 0 -9 -4 -7 -7Z" fill="#2B2A47" stroke="#1B175A" stroke-width="2.6" stroke-linejoin="round"/><path d="M-10 3.2H21V7.2H-10Z" fill="#FFFCFC" stroke="#1B175A" stroke-width="2.2" stroke-linejoin="round"/></g><path d="M254 164 L256 206 L258 247" fill="none" stroke="#1B175A" stroke-width="21" stroke-linecap="round" stroke-linejoin="round"/><path d="M254 164 L256 206 L258 247" fill="none" stroke="#3B3E5A" stroke-width="16" stroke-linecap="round" stroke-linejoin="round"/><g transform="translate(258 248) scale(1 1) rotate(0)"><path d="M-7 -7C-6 -10 3 -10 6 -7L14 -4C19 -3 21 1 20 4L-9 4C-10 0 -9 -4 -7 -7Z" fill="#2B2A47" stroke="#1B175A" stroke-width="2.6" stroke-linejoin="round"/><path d="M-10 3.2H21V7.2H-10Z" fill="#FFFCFC" stroke="#1B175A" stroke-width="2.2" stroke-linejoin="round"/></g></g>
<g transform="translate(246 255) scale(1.1) translate(-246 -255)"><path d="M246 101 L246 87.2" fill="none" stroke="#1B175A" stroke-width="13" stroke-linecap="round" stroke-linejoin="round"/><path d="M246 101 L246 87.2" fill="none" stroke="#A8744C" stroke-width="8.5" stroke-linecap="round" stroke-linejoin="round"/><path d="M239.3 101Q227 101 227 111L230.5 168L261.5 168L265 111Q265 101 252.7 101Z" fill="url(#sflSt_po)" stroke="#1B175A" stroke-width="3" stroke-linejoin="round"/><path d="M227 113Q227 131 229 137L232 168L237.5 168Z" fill="#7E808E" fill-opacity=".25"/><path d="M236.5 101 L246 102 L243 111Z" fill="#D3D5DE" stroke="#1B175A" stroke-width="2" stroke-linejoin="round"/><path d="M255.5 101 L246 102 L249 111Z" fill="#D3D5DE" stroke="#1B175A" stroke-width="2" stroke-linejoin="round"/><path d="M246 107 L246 118" fill="none" stroke="#7E808E" stroke-width="1.6" stroke-linecap="round" stroke-linejoin="round"/><circle cx="246" cy="110.5" r="1.2" fill="#FFFCFC"/><circle cx="246" cy="115.5" r="1.2" fill="#FFFCFC"/><path d="M252.3 115.8L253.7 114.1L257.3 114.1L258.7 115.8L255.5 120.2Z" fill="#1B175A" stroke-linejoin="round"/><circle cx="246" cy="60.7" r="7.1" fill="#3E2A1E" stroke="#1B175A" stroke-width="2.4"/><circle cx="246" cy="78" r="17" fill="#C48C64" stroke="#1B175A" stroke-width="2.8"/><path d="M228.7 81.4C227.3 54.2 264.7 54.2 263.3 81.4C259.6 72 250.2 67.8 245.2 70.9C240.1 72.9 231.6 73.8 228.7 81.4Z" fill="#3E2A1E" stroke="#1B175A" stroke-width="2.4" stroke-linejoin="round"/><ellipse cx="240.2" cy="80" rx="1.5" ry="2.2" fill="#1B175A"/><ellipse cx="251.8" cy="80" rx="1.5" ry="2.2" fill="#1B175A"/><circle cx="238.9" cy="86.2" r="2.2" fill="#F6A078" fill-opacity=".5"/><circle cx="253.1" cy="86.2" r="2.2" fill="#F6A078" fill-opacity=".5"/><path d="M241.9 86.5Q246 90.9 250.1 86.5" fill="none" stroke="#1B175A" stroke-width="2" stroke-linecap="round"/></g>
<g transform="translate(246 255) scale(1.1) translate(-246 -255)"><rect x="236" y="124" width="21" height="32" rx="4" fill="#1B175A"/><rect x="238.5" y="127.5" width="16" height="25" rx="2" fill="#FFFCFC"/><circle cx="241.5" cy="131.5" r="1.3" fill="#82CAFB"/><circle cx="244.9" cy="131.5" r="1.3" fill="#82CAFB"/><circle cx="248.3" cy="131.5" r="1.3" fill="#F6A078"/><circle cx="251.7" cy="131.5" r="1.3" fill="#D3D5DE"/><rect x="240" y="136" width="12" height="8" rx="1" fill="#E2F1FD"/><rect x="240" y="147" width="12" height="3" rx="1.5" fill="#1B175A"/></g>
<g transform="translate(246 255) scale(1.1) translate(-246 -255)"><path d="M262 110 L272 138 L256 146" fill="none" stroke="#1B175A" stroke-width="15" stroke-linecap="round" stroke-linejoin="round"/><path d="M262 110 L272 138 L256 146" fill="none" stroke="#C48C64" stroke-width="10" stroke-linecap="round" stroke-linejoin="round"/><path d="M262 110 L267.5 125.4" fill="none" stroke="#1B175A" stroke-width="20" stroke-linecap="round" stroke-linejoin="round"/><path d="M262 110 L267.5 125.4" fill="none" stroke="#A9ABB8" stroke-width="15" stroke-linecap="round" stroke-linejoin="round"/><circle cx="256" cy="146" r="6.3" fill="#C48C64" stroke="#1B175A" stroke-width="2.6"/></g>
<path d="M150 32Q151.6 38.4 158 40Q151.6 41.6 150 48Q148.4 41.6 142 40Q148.4 38.4 150 32Z" fill="#82CAFB"/>
<path d="M380 24Q381.2 28.8 386 30Q381.2 31.2 380 36Q378.8 31.2 374 30Q378.8 28.8 380 24Z" fill="#F6A078"/>
<path d="M200 19Q201 23 205 24Q201 25 200 29Q199 25 195 24Q199 23 200 19Z" fill="#FFCB8E"/>
<path d="M318 145Q319 149 323 150Q319 151 318 155Q317 151 313 150Q317 149 318 145Z" fill="#82CAFB"/>
</svg>
