<svg xmlns="http://www.w3.org/2000/svg" width="400" height="300" viewBox="0 0 400 300">
<!-- A table with two chairs and two cups, ready for two people to sit down and talk, with a window and a clock on the wall. Drawn for the CCC Team Portal supervisor add on. No text. -->
<defs><linearGradient id="svCT_wl" x1="0" y1="0" x2="0" y2="1"><stop offset="0" stop-color="#FFF7F0"/><stop offset="1" stop-color="#EEE9F5"/></linearGradient></defs>
<rect width="400" height="300" fill="url(#svCT_wl)"/><rect y="250" width="400" height="50" fill="#D6EAFD"/><rect y="244" width="400" height="7" fill="#1B175A"/><path d="M36 276H150M232 294H370" stroke="#FFFCFC" stroke-width="5" stroke-linecap="round" opacity=".75"/><rect x="36" y="52" width="90" height="78" rx="4" fill="#B3DAFB" stroke="#1B175A" stroke-width="3.5"/><path d="M40 126L85.5 56L122 56Z" fill="#D6EAFD" opacity=".6"/><path d="M81 52V130M36 91H126" stroke="#1B175A" stroke-width="3"/><circle cx="346" cy="68" r="21" fill="#FFFCFC" stroke="#1B175A" stroke-width="3"/><path d="M346 68L338.65 55.21M346 68L356.39 70.31" stroke="#1B175A" stroke-width="2.6" stroke-linecap="round"/><circle cx="346" cy="68" r="2.4" fill="#F6A078"/><g transform="translate(370 220) scale(0.95)"><path d="M-13 0H13L9 22H-9Z" fill="#F6A078" stroke="#1B175A" stroke-width="2.6" stroke-linejoin="round"/><path d="M0 0C-4 -14 -12 -20 -19 -21C-15 -11 -8 -4 0 0ZM0 0C2 -16 10 -25 18 -26C14 -14 8 -5 0 0ZM0 0V-18" fill="#82CAFB" stroke="#1B175A" stroke-width="2.2" stroke-linejoin="round"/></g><rect x="74" y="140" width="88" height="104" rx="16" fill="#82CAFB" stroke="#1B175A" stroke-width="3"/><rect x="238" y="140" width="88" height="104" rx="16" fill="#FCD9C4" stroke="#1B175A" stroke-width="3"/><path d="M20 238H380L386 250H14Z" fill="#F3C7A6" stroke="#1B175A" stroke-width="3" stroke-linejoin="round"/><path d="M16 250H384L392 300H8Z" fill="#FFFCFC" stroke="#1B175A" stroke-width="3" stroke-linejoin="round"/><path d="M24 272H376" stroke="#D6EAFD" stroke-width="3" opacity=".85"/><g transform="translate(176 238) scale(0.92)"><path d="M-11 -26H11V-6C-11 -6 11 -6 11 -6C11 -2 8 0 4 0H-4C-8 0 -11 -2 -11 -6Z" fill="#FFFCFC" stroke="#1B175A" stroke-width="2.6" stroke-linejoin="round"/><path d="M11 -21C18 -21 18 -10 11 -10" fill="none" stroke="#1B175A" stroke-width="2.6"/><path d="M-9 -22H9V-18H-9Z" fill="#82CAFB"/><path d="M-4 -33C-7 -39 -1 -43 -4 -49M4 -33C1 -39 7 -43 4 -49" fill="none" stroke="#F6A078" stroke-width="2.2" stroke-linecap="round" opacity=".8"/></g><g transform="translate(226 238) scale(0.92)"><path d="M-11 -26H11V-6C-11 -6 11 -6 11 -6C11 -2 8 0 4 0H-4C-8 0 -11 -2 -11 -6Z" fill="#FFFCFC" stroke="#1B175A" stroke-width="2.6" stroke-linejoin="round"/><path d="M11 -21C18 -21 18 -10 11 -10" fill="none" stroke="#1B175A" stroke-width="2.6"/><path d="M-9 -22H9V-18H-9Z" fill="#82CAFB"/><path d="M-4 -33C-7 -39 -1 -43 -4 -49M4 -33C1 -39 7 -43 4 -49" fill="none" stroke="#F6A078" stroke-width="2.2" stroke-linecap="round" opacity=".8"/></g><path d="M200 88L202.24 93.76L208 96L202.24 98.24L200 104L197.76 98.24L192 96L197.76 93.76Z" fill="#F6A078"/><path d="M160 50L161.68 54.32L166 56L161.68 57.68L160 62L158.32 57.68L154 56L158.32 54.32Z" fill="#82CAFB"/><path d="M300 105L301.4 108.6L305 110L301.4 111.4L300 115L298.6 111.4L295 110L298.6 108.6Z" fill="#EFAE62"/>
</svg>
