<svg xmlns="http://www.w3.org/2000/svg" width="400" height="300" viewBox="0 0 400 300">
<!-- A phone calling the CCC office, with the sun on one side and the moon on the other. Drawn for the CCC Team Portal supervisor add on. No text. -->
<defs><linearGradient id="svOA_dy" x1="0" y1="0" x2="0" y2="1"><stop offset="0" stop-color="#DCEEFD"/><stop offset="1" stop-color="#FFF1E4"/></linearGradient><linearGradient id="svOA_nt" x1="0" y1="0" x2="0" y2="1"><stop offset="0" stop-color="#1B175A"/><stop offset="1" stop-color="#3A3585"/></linearGradient></defs>
<rect width="400" height="300" fill="url(#svOA_dy)"/><path d="M186 0H400V300H214C196 240 224 180 204 120C190 80 204 40 186 0Z" fill="url(#svOA_nt)"/><circle cx="72" cy="74" r="39.15" fill="#FFCB8E" opacity=".35"/><circle cx="72" cy="74" r="27" fill="#FFCB8E"/><circle cx="67.95" cy="69.95" r="16.2" fill="#FFE2B5"/><path d="M20 206h51c6.8 0 8.5 -10.2 -1.7 -11.9c-1.7 -10.2 -15.3 -11.9 -22.1 -5.1c-5.1 -8.5 -22.1 -8.5 -27.2 17z" fill="#FFFCFC" opacity="1"/><path d="M86 250h33c4.4 0 5.5 -6.6 -1.1 -7.7c-1.1 -6.6 -9.9 -7.7 -14.3 -3.3c-3.3 -5.5 -14.3 -5.5 -17.6 11z" fill="#FFFCFC" opacity="0.9"/><circle cx="330" cy="72" r="25" fill="#FFFCFC"/><circle cx="341.5" cy="62.5" r="23" fill="#231F66"/><path d="M276 39L277.4 42.6L281 44L277.4 45.4L276 49L274.6 45.4L271 44L274.6 42.6Z" fill="#FFFCFC"/><path d="M296 126L297.68 130.32L302 132L297.68 133.68L296 138L294.32 133.68L290 132L294.32 130.32Z" fill="#FFFCFC"/><path d="M368 143L369.4 146.6L373 148L369.4 149.4L368 153L366.6 149.4L363 148L366.6 146.6Z" fill="#FFCB8E"/><path d="M362 228L363.68 232.32L368 234L363.68 235.68L362 240L360.32 235.68L356 234L360.32 232.32Z" fill="#FFFCFC"/><path d="M258 246L259.12 248.88L262 250L259.12 251.12L258 254L256.88 251.12L254 250L256.88 248.88Z" fill="#FFCB8E"/><path d="M318 192L319.12 194.88L322 196L319.12 197.12L318 200L316.88 197.12L314 196L316.88 194.88Z" fill="#FFFCFC"/><g transform="translate(200 166) rotate(5) scale(2.8)"><rect x="-12" y="-21" width="24" height="42" rx="5" fill="#1B175A" stroke="#1B175A" stroke-width="2"/><rect x="-9" y="-16" width="18" height="30" rx="2" fill="#D6EAFD"/><circle cx="0" cy="17.5" r="1.6" fill="#FFFCFC"/></g><g transform="translate(200 186) scale(1.5)"><path d="M-20 18V-16C-20 -19 -18 -21 -15 -21H15C18 -21 20 -19 20 -16V18Z" fill="#FFFCFC" stroke="#1B175A" stroke-width="3" stroke-linejoin="round"/><rect x="-13" y="-14" width="8" height="7" fill="#B3DAFB"/><rect x="-2" y="-14" width="8" height="7" fill="#B3DAFB"/><rect x="9" y="-14" width="6" height="7" fill="#B3DAFB"/><rect x="-13" y="-3" width="8" height="7" fill="#B3DAFB"/><rect x="9" y="-3" width="6" height="7" fill="#B3DAFB"/><path d="M-5 18V8C-5 5 -2 3 0 3C3 3 5 5 5 8V18Z" fill="#1B175A"/></g><circle cx="202" cy="120" r="25" fill="#F6A078" stroke="#1B175A" stroke-width="3"/><g transform="translate(200 122) scale(1.55)"><path d="M-9 -10C-11 -8 -12 -5 -11 -2C-8 6 -2 11 5 12C8 12.6 10 11 11 9L12 7C12.4 6 12 5 11 4.4L7 2.2C6 1.8 5 2 4.4 2.8L3 4.6C-1 3 -3 0 -4.6 -3.6L-2.8 -5C-2 -5.6 -1.8 -6.6 -2.2 -7.6L-4.4 -11.6C-5 -12.6 -6 -13 -7 -12.6Z" fill="#FFFCFC"/></g><path d="M146 141.2Q139.4 150 146 158.8" fill="none" stroke="#EFAE62" stroke-width="3.3" stroke-linecap="round"/><path d="M139.4 134.6Q128.4 150 139.4 165.4" fill="none" stroke="#EFAE62" stroke-width="3.3" stroke-linecap="round"/><path d="M252 141.2Q258.6 150 252 158.8" fill="none" stroke="#82CAFB" stroke-width="3.3" stroke-linecap="round"/><path d="M258.6 134.6Q269.6 150 258.6 165.4" fill="none" stroke="#82CAFB" stroke-width="3.3" stroke-linecap="round"/>
</svg>
