<svg xmlns="http://www.w3.org/2000/svg" width="400" height="300" viewBox="0 0 400 300">
<!-- A CCC supervisor takes the call in front, and across the drawing a worker stands well outside a vacation rental with her phone. Drawn for the CCC Team Portal supervisor add on. No text. -->
<defs><linearGradient id="svWC_sk" x1="0" y1="0" x2="0" y2="1"><stop offset="0" stop-color="#CFE7FC"/><stop offset="1" stop-color="#FFF1E4"/></linearGradient></defs>
<rect width="400" height="300" fill="url(#svWC_sk)"/><rect y="238" width="400" height="62" fill="#EAE7F2"/><circle cx="44" cy="52" r="29" fill="#FFCB8E" opacity=".35"/><circle cx="44" cy="52" r="20" fill="#FFCB8E"/><circle cx="41" cy="49" r="12" fill="#FFE2B5"/><path d="M160 44h48c6.4 0 8 -9.6 -1.6 -11.2c-1.6 -9.6 -14.4 -11.2 -20.8 -4.8c-4.8 -8 -20.8 -8 -25.6 16z" fill="#FFFCFC" opacity="1"/><path d="M300 74h36c4.8 0 6 -7.2 -1.2 -8.4c-1.2 -7.2 -10.8 -8.4 -15.6 -3.6c-3.6 -6 -15.6 -6 -19.2 12z" fill="#FFFCFC" opacity="0.9"/><rect x="250" y="140" width="140" height="100" fill="#D6EAFD" stroke="#1B175A" stroke-width="3.2"/><path d="M253 154H387" stroke="#FFFCFC" stroke-width="1.6" opacity=".7"/><path d="M253 168H387" stroke="#FFFCFC" stroke-width="1.6" opacity=".7"/><path d="M253 182H387" stroke="#FFFCFC" stroke-width="1.6" opacity=".7"/><path d="M253 196H387" stroke="#FFFCFC" stroke-width="1.6" opacity=".7"/><path d="M253 210H387" stroke="#FFFCFC" stroke-width="1.6" opacity=".7"/><path d="M253 224H387" stroke="#FFFCFC" stroke-width="1.6" opacity=".7"/><path d="M238 144L320 94L402 144Z" fill="#F6A078" stroke="#1B175A" stroke-width="3.2" stroke-linejoin="round"/><rect x="302" y="184" width="34" height="56" rx="3" fill="#E88A62" stroke="#1B175A" stroke-width="3.2"/><circle cx="329" cy="212" r="2.8" fill="#FFCB8E"/><rect x="266" y="156" width="34" height="30" rx="4" fill="#B3DAFB" stroke="#1B175A" stroke-width="3.5"/><path d="M270 182L284.7 160L296 160Z" fill="#D6EAFD" opacity=".6"/><path d="M283 156V186M266 171H300" stroke="#1B175A" stroke-width="3"/><rect x="340" y="156" width="34" height="30" rx="4" fill="#B3DAFB" stroke="#1B175A" stroke-width="3.5"/><path d="M344 182L358.7 160L370 160Z" fill="#D6EAFD" opacity=".6"/><path d="M357 156V186M340 171H374" stroke="#1B175A" stroke-width="3"/><rect x="294" y="238" width="50" height="8" rx="2" fill="#F3C7A6" stroke="#1B175A" stroke-width="2.4"/><g transform="translate(152 240) scale(0.56)"><path d="M-4 0V-40H4V0Z" fill="#DDA07A" stroke="#1B175A" stroke-width="2.5"/><path d="M0 -92C-22 -92 -30 -74 -26 -62C-36 -56 -32 -36 -16 -36H16C32 -36 36 -56 26 -62C30 -74 22 -92 0 -92Z" fill="#A9D2F7" stroke="#1B175A" stroke-width="3" stroke-linejoin="round"/><path d="M-12 -70C-8 -78 0 -80 6 -78" fill="none" stroke="#FFFCFC" stroke-width="3" stroke-linecap="round" opacity=".8"/></g><path d="M288 246H330L340 300H236Z" fill="#D9D6E6"/><path d="M0 272H400" stroke="#FFFCFC" stroke-width="3" opacity=".8"/><ellipse cx="214" cy="293" rx="26" ry="6" fill="#D9D6E6" opacity=".75"/><g transform="translate(214 292) scale(-0.76 0.76)"><path d="M-8 -62 L-9 -6" fill="none" stroke="#1B175A" stroke-width="17.8" stroke-linecap="round" stroke-linejoin="round"/><path d="M-8 -62 L-9 -6" fill="none" stroke="#35316F" stroke-width="13" stroke-linecap="round" stroke-linejoin="round"/><path d="M8 -62 L9 -6" fill="none" stroke="#1B175A" stroke-width="17.8" stroke-linecap="round" stroke-linejoin="round"/><path d="M8 -62 L9 -6" fill="none" stroke="#35316F" stroke-width="13" stroke-linecap="round" stroke-linejoin="round"/><ellipse cx="-12" cy="-5" rx="10" ry="5" fill="#1B175A" stroke="#1B175A" stroke-width="2.4"/><ellipse cx="12" cy="-5" rx="10" ry="5" fill="#1B175A" stroke="#1B175A" stroke-width="2.4"/><path d="M-19 -101C-19 -109 -15 -112 -9 -113L9 -113C15 -112 19 -109 19 -101L18 -60C8 -57 -8 -57 -18 -60Z" fill="#AEB0BD" stroke="#1B175A" stroke-width="2.4" stroke-linejoin="round"/><path d="M10 -109C14 -100 15 -80 14.5 -59.4L18 -60L19 -101C19 -106 17 -110 13 -112Z" fill="#8D8F9C" opacity=".45"/><path d="M18 -104 L25 -84 L25 -64" fill="none" stroke="#1B175A" stroke-width="12.3" stroke-linecap="round" stroke-linejoin="round"/><path d="M18 -104 L25 -84 L25 -64" fill="none" stroke="#BE8258" stroke-width="7.5" stroke-linecap="round" stroke-linejoin="round"/><path d="M9.93 -104.35 L24.09 -109.31 L29.7 -94.18 L14.98 -89.02 Z" fill="#AEB0BD" stroke="#1B175A" stroke-width="2.4" stroke-linejoin="round"/><path d="M-16.8 -100C-16.8 -107.5 -13.5 -110.6 -8 -111.6L8 -111.6C13.5 -110.6 16.8 -107.5 16.8 -100L16.4 -95H-16.4Z" fill="#AEB0BD"/><path d="M0 -103V-86" stroke="#8D8F9C" stroke-width="1.3" opacity=".7"/><circle cx="0" cy="-96" r="1.2" fill="#FFFCFC"/><circle cx="0" cy="-90" r="1.2" fill="#FFFCFC"/><path d="M-13 -99.6L-7 -99.6L-5.4 -97.6L-10 -93L-14.6 -97.6Z" fill="#1B175A"/><path d="M-14.2 -97.6H-5.8" stroke="#6F74B8" stroke-width="0.6" opacity=".7"/><path d="M-5 -120V-110H5V-120Z" fill="#BE8258"/><path d="M-5 -113V-110L0 -104L5 -110V-113Z" fill="#A36A44"/><path d="M-9 -113L0 -104L-3 -99L-11 -108Z" fill="#CBCDD6" stroke="#1B175A" stroke-width="1.6" stroke-linejoin="round"/><path d="M9 -113L0 -104L3 -99L11 -108Z" fill="#CBCDD6" stroke="#1B175A" stroke-width="1.6" stroke-linejoin="round"/><circle cx="0" cy="-128" r="14.5" fill="#BE8258" stroke="#1B175A" stroke-width="2.4"/><path d="M-15.5 -126C-17 -142 -8 -146 0 -146C9 -146 17 -141 15.5 -126C13 -133 8 -137 2 -138C-2 -134 -9 -131 -15.5 -126Z" fill="#4A2E20" stroke="#1B175A" stroke-width="2.4" stroke-linejoin="round"/><circle cx="0" cy="-148" r="7" fill="#4A2E20" stroke="#1B175A" stroke-width="2.4"/><circle cx="-7" cy="-127" r="1.9" fill="#1B175A"/><circle cx="3" cy="-127" r="1.9" fill="#1B175A"/><circle cx="-11" cy="-122" r="2.6" fill="#F6A078" opacity=".55"/><circle cx="7" cy="-122" r="2.6" fill="#F6A078" opacity=".55"/><path d="M-6 -121Q-2 -117 2 -121" fill="none" stroke="#1B175A" stroke-width="1.6" stroke-linecap="round"/><path d="M-18 -104 L-29 -96 L-15 -124" fill="none" stroke="#1B175A" stroke-width="12.3" stroke-linecap="round" stroke-linejoin="round"/><path d="M-18 -104 L-29 -96 L-15 -124" fill="none" stroke="#BE8258" stroke-width="7.5" stroke-linecap="round" stroke-linejoin="round"/><path d="M-19.99 -111.83 L-11.16 -99.7 L-20.23 -92.73 L-29.41 -105.35 Z" fill="#AEB0BD" stroke="#1B175A" stroke-width="2.4" stroke-linejoin="round"/><rect x="-18.5" y="-132" width="7" height="13" rx="2" transform="rotate(-18 -15 -124)" fill="#1B175A" stroke="#1B175A" stroke-width="1.4"/></g><ellipse cx="78" cy="291" rx="34" ry="7" fill="#D9D6E6" opacity=".75"/><g transform="translate(78 290) scale(1.04 1.04)"><path d="M-15 -136C-20 -120 -19 -104 -23 -90C-12 -86 12 -86 23 -90C19 -104 20 -120 15 -136Z" fill="#1D1412" stroke="#1B175A" stroke-width="2.4" stroke-linejoin="round"/><path d="M-8 -62 L-9 -6" fill="none" stroke="#1B175A" stroke-width="17.8" stroke-linecap="round" stroke-linejoin="round"/><path d="M-8 -62 L-9 -6" fill="none" stroke="#35316F" stroke-width="13" stroke-linecap="round" stroke-linejoin="round"/><path d="M8 -62 L9 -6" fill="none" stroke="#1B175A" stroke-width="17.8" stroke-linecap="round" stroke-linejoin="round"/><path d="M8 -62 L9 -6" fill="none" stroke="#35316F" stroke-width="13" stroke-linecap="round" stroke-linejoin="round"/><ellipse cx="-12" cy="-5" rx="10" ry="5" fill="#1B175A" stroke="#1B175A" stroke-width="2.4"/><ellipse cx="12" cy="-5" rx="10" ry="5" fill="#1B175A" stroke="#1B175A" stroke-width="2.4"/><path d="M-19 -101C-19 -109 -15 -112 -9 -113L9 -113C15 -112 19 -109 19 -101L18 -60C8 -57 -8 -57 -18 -60Z" fill="#AEB0BD" stroke="#1B175A" stroke-width="2.4" stroke-linejoin="round"/><path d="M10 -109C14 -100 15 -80 14.5 -59.4L18 -60L19 -101C19 -106 17 -110 13 -112Z" fill="#8D8F9C" opacity=".45"/><path d="M18 -104 L25 -84 L25 -64" fill="none" stroke="#1B175A" stroke-width="12.3" stroke-linecap="round" stroke-linejoin="round"/><path d="M18 -104 L25 -84 L25 -64" fill="none" stroke="#8A5A3B" stroke-width="7.5" stroke-linecap="round" stroke-linejoin="round"/><path d="M9.93 -104.35 L24.09 -109.31 L29.7 -94.18 L14.98 -89.02 Z" fill="#AEB0BD" stroke="#1B175A" stroke-width="2.4" stroke-linejoin="round"/><path d="M-16.8 -100C-16.8 -107.5 -13.5 -110.6 -8 -111.6L8 -111.6C13.5 -110.6 16.8 -107.5 16.8 -100L16.4 -95H-16.4Z" fill="#AEB0BD"/><path d="M0 -103V-86" stroke="#8D8F9C" stroke-width="1.3" opacity=".7"/><circle cx="0" cy="-96" r="1.2" fill="#FFFCFC"/><circle cx="0" cy="-90" r="1.2" fill="#FFFCFC"/><path d="M7 -99.6L13 -99.6L14.6 -97.6L10 -93L5.4 -97.6Z" fill="#1B175A"/><path d="M5.8 -97.6H14.2" stroke="#6F74B8" stroke-width="0.6" opacity=".7"/><path d="M-5 -120V-110H5V-120Z" fill="#8A5A3B"/><path d="M-5 -113V-110L0 -104L5 -110V-113Z" fill="#72472D"/><path d="M-9 -113L0 -104L-3 -99L-11 -108Z" fill="#CBCDD6" stroke="#1B175A" stroke-width="1.6" stroke-linejoin="round"/><path d="M9 -113L0 -104L3 -99L11 -108Z" fill="#CBCDD6" stroke="#1B175A" stroke-width="1.6" stroke-linejoin="round"/><circle cx="0" cy="-128" r="14.5" fill="#8A5A3B" stroke="#1B175A" stroke-width="2.4"/><path d="M-15.5 -126C-17 -142 -8 -146 0 -146C9 -146 17 -141 15.5 -126C13 -133 8 -137 2 -138C-2 -134 -9 -131 -15.5 -126Z" fill="#1D1412" stroke="#1B175A" stroke-width="2.4" stroke-linejoin="round"/><circle cx="-3" cy="-127" r="1.9" fill="#1B175A"/><circle cx="7" cy="-127" r="1.9" fill="#1B175A"/><circle cx="-7" cy="-122" r="2.6" fill="#F6A078" opacity=".55"/><circle cx="11" cy="-122" r="2.6" fill="#F6A078" opacity=".55"/><path d="M-2 -121Q2 -117 6 -121" fill="none" stroke="#1B175A" stroke-width="1.6" stroke-linecap="round"/><path d="M-18 -104 L-29 -96 L-15 -124" fill="none" stroke="#1B175A" stroke-width="12.3" stroke-linecap="round" stroke-linejoin="round"/><path d="M-18 -104 L-29 -96 L-15 -124" fill="none" stroke="#8A5A3B" stroke-width="7.5" stroke-linecap="round" stroke-linejoin="round"/><path d="M-19.99 -111.83 L-11.16 -99.7 L-20.23 -92.73 L-29.41 -105.35 Z" fill="#AEB0BD" stroke="#1B175A" stroke-width="2.4" stroke-linejoin="round"/><rect x="-18.5" y="-132" width="7" height="13" rx="2" transform="rotate(-18 -15 -124)" fill="#1B175A" stroke="#1B175A" stroke-width="1.4"/></g><path d="M106 162Q149 108 192 194" fill="none" stroke="#E88A62" stroke-width="3" stroke-dasharray="3 9" stroke-linecap="round"/><path d="M116 152.4Q120.2 158 116 163.6" fill="none" stroke="#E88A62" stroke-width="2.1" stroke-linecap="round"/><path d="M120.2 148.2Q127.2 158 120.2 167.8" fill="none" stroke="#E88A62" stroke-width="2.1" stroke-linecap="round"/><path d="M184 181.6Q180.7 186 184 190.4" fill="none" stroke="#82CAFB" stroke-width="1.65" stroke-linecap="round"/><path d="M180.7 178.3Q175.2 186 180.7 193.7" fill="none" stroke="#82CAFB" stroke-width="1.65" stroke-linecap="round"/><path d="M180 110L182.24 115.76L188 118L182.24 120.24L180 126L177.76 120.24L172 118L177.76 115.76Z" fill="#F6A078"/><path d="M372 116L373.68 120.32L378 122L373.68 123.68L372 128L370.32 123.68L366 122L370.32 120.32Z" fill="#82CAFB"/>
</svg>
