<svg xmlns="http://www.w3.org/2000/svg" width="400" height="300" viewBox="0 0 400 300">
<!-- A CCC supervisor takes the call in front, and across the drawing a worker stands well outside a vacation rental with her phone. Drawn for the CCC Team Portal supervisor add on. No text. -->
<defs><path id="qwor0" d="M25.7-148.3C26.4-148.8 29.1-149.9 30.1-151.6C31.1-153.3 32-155.5 31.5-158.5C31.1-161.5 28.2-167.9 27.6-169.8L34.4-174.2C35.5-171.8 40.1-164.4 40.9-159.8C41.7-155.2 41.2-150.4 39.4-146.7C37.7-143 31.9-139.2 30.3-137.7Z"/><path id="qwor1" d="M33.2-145.4C33.8-143.2 36.1-136.7 36.9-132.1C37.6-127.5 37.8-122.7 37.7-117.9C37.6-113.1 36.3-105.8 36.1-103.4L27.9-104.6C28-106.8 28.5-113.6 28.2-117.9C28-122.1 27.4-126.3 26.5-130.1C25.6-133.9 23.4-138.9 22.8-140.6Z"/><path id="qwor2" d="M0 -206C12.1 -206 21 -197.9 21 -186.9C21 -178 17.9 -170.7 11.6 -165.5C7.6 -162.2 3.6 -160 0 -160C-3.6 -160-7.6 -162.2-11.6 -165.5C-17.9 -170.7-21 -178-21 -186.9C-21 -197.9-12.1 -206 0 -206Z"/><path id="qwor3" d="M-6.2 -171C-6.8 -158-7.6 -150-8.4 -145H8.4C7.6 -150 6.8 -158 6.2 -171Z"/><linearGradient id="svWC_sk" x1="0" y1="0" x2="0" y2="1"><stop offset="0" stop-color="#CFE7FC"/><stop offset="1" stop-color="#FFF1E4"/></linearGradient><linearGradient id="kq" gradientUnits="userSpaceOnUse" x1="-38" y1="-160" x2="20" y2="-82"><stop offset="0" stop-color="#B9BBC6"/><stop offset="1" stop-color="#8D8F9C"/></linearGradient><linearGradient id="kr" gradientUnits="userSpaceOnUse" x1="-28" y1="-88" x2="24" y2="-8"><stop offset="0" stop-color="#363177"/><stop offset="1" stop-color="#262257"/></linearGradient><linearGradient id="kj" x1="0" y1="0" x2=".3" y2="1"><stop offset="0" stop-color="#C08E66"/><stop offset="1" stop-color="#A97350"/></linearGradient><linearGradient id="kj5" x1="0" y1="0" x2=".3" y2="1"><stop offset="0" stop-color="#A16847"/><stop offset="1" stop-color="#935A3B"/></linearGradient>----------------
<linearGradient id="kh" gradientUnits="userSpaceOnUse" x1="0" y1="-212" x2="0" y2="-128"><stop offset="0" stop-color="#1A110F"/><stop offset=".5" stop-color="#241813"/><stop offset=".8" stop-color="#35231B"/><stop offset="1" stop-color="#5A3A29"/></linearGradient><clipPath id="ke"><path d="M6.1 1C3.1-2.8-3.1-3-6.2 0C-3.1 2.3 2.5 3 6.1 1Z"/></clipPath><g id="ky"><path d="M6.1 1C3.1-2.8-3.1-3-6.2 0C-3.1 2.3 2.5 3 6.1 1Z" fill="#FFF8F3"/><g clip-path="url(#ke)"><circle cx=".2" cy=".6" r="3.4" fill="#5E3522"/><circle cx=".2" cy=".6" r="1.8" fill="#1A0F0B"/></g><circle cx="1.4" cy="-.4" r=".95" fill="#FFFCFC"/><path d="M6.1 1C3.1-2.8-3.1-3-6.2 0L-7.4-1.5L-5.8-1.6C-2.6-4.4 3.4-3.4 6.4 .4Z" fill="#1E110D"/><path d="M-5.4 .2C-3.1 2.3 2.5 3 6.1 1" fill="none" stroke="#946447" stroke-width="1" stroke-opacity=".6"/></g><g id="s0"><path d="M0 -209C-14 -209-24 -204-30.5 -195C-37 -186-40.5 -174-41.5 -160C-42.5 -146-40.5 -131-35 -118C-30 -122-22 -126-14 -127L14 -127C22 -126 30 -122 35 -118C40.5 -131 42.5 -146 41.5 -160C40.5 -174 37 -186 30.5 -195C24 -204 14 -209 0 -209Z" fill="url(#kh)"/></g><g id="s1"><path d="M-26 -84C-25.4 -68-23.4 -56-22.4 -46C-21.6 -38-23.8 -28-22.4 -12H-8.8C-8 -26-10.2 -36-9.6 -46C-9 -56-6 -66-4 -74H4C6 -66 9 -56 9.6 -46C10.2 -36 8 -26 8.8 -12H22.4C23.8 -28 21.6 -38 22.4 -46C23.4 -56 25.4 -68 26 -84Z" fill="url(#kr)" stroke="#1B175A" stroke-width="2.4"/><path d="M9.8 -78C11.4 -60 12.6 -36 13.4 -13.5H19.4C18.2 -36 17.4 -60 17.8 -78Z" fill="#1B175A" fill-opacity=".22" stroke="none"/><path d="M-19.6 -47.6C-16.4 -44.8-13.2 -44.6-10.4 -45.8M19.6 -47.6C16.4 -44.8 13.2 -44.6 10.4 -45.8" fill="none" stroke="#1B175A" stroke-width="1.4" stroke-opacity=".3" stroke-linecap="round"/><use href="#ks" transform="translate(-15.5)scale(-1 1)"/><use href="#ks" transform="translate(15.5)"/></g><g id="s2">----------------
<g><path d="M0 -145L8.5 -151.5L17 -155.5C25 -157.4 32 -154.6 35.2 -148.6C38 -143.4 38.6 -137 37 -131L27.4 -128C28.6 -123 28.4 -114 23.8 -104C21.8 -98 22.6 -90 26.4 -84C8.8 -80.4-8.8 -80.4-26.4 -84C-22.6 -90-21.8 -98-23.8 -104C-28.4 -114-28.6 -123-27.4 -128L-37 -131C-38.6 -137-38 -143.4-35.2 -148.6C-32 -154.6-25 -157.4-17 -155.5L-8.5 -151.5Z" fill="url(#kq)" stroke="#1B175A" stroke-width="2.4"/><path d="M18.4 -156.2C26 -157.2 32.4 -154.4 35.2 -148.6C38 -143.4 38.6 -137 37 -131L27.4 -128C28.6 -123 28.4 -114 23.8 -104C21.8 -98 22.6 -90 26.4 -84C23.8 -83.4 21.4 -83 18.8 -82.7C20.4 -90 16.6 -98 17.6 -104C18.6 -114 17.4 -123 18.4 -128Z" fill="#5C5E6D" fill-opacity=".22"/><path d="M37 -131L27.4 -128L26.4 -131.4L36 -134.4ZM-37 -131L-27.4 -128L-26.4 -131.4L-36 -134.4Z" fill="#7E808E"/><path d="M-16.2 -153.8C-23.4 -155.2-29.6 -152.8-32.8 -147.8M16.2 -153.8C23.4 -155.2 29.6 -152.8 32.8 -147.8" fill="none" stroke="#D2D4DC" stroke-width="2.6" stroke-opacity=".38" stroke-linecap="round"/><path d="M29.6 -147.6C29.2 -141 29 -135.2 29 -129.4M-29.6 -147.6C-29.2 -141-29 -135.2-29 -129.4" fill="none" stroke="#5C5E6D" stroke-width="1.4" stroke-opacity=".4" stroke-linecap="round"/><path d="M-22.8 -90C-8 -86.4 8 -86.4 22.8 -90" fill="none" stroke="#5C5E6D" stroke-width="1.4" stroke-opacity=".3"/><g fill="#474956"><path d="M-6.6 -162.2L-18 -153.2L-1.4 -145.2L0 -146.4L-6.6 -158.6Z"/><path d="M6.6 -162.2L18 -153.2L1.4 -145.2L0 -146.4L6.6 -158.6Z"/></g><g fill="#CBCDD6"><path d="M-5.8 -160.4L-16.1 -152.7L-1.3 -146L0 -147.1L-5.8 -157.5Z"/><path d="M5.8 -160.4L16.1 -152.7L1.3 -146L0 -147.1L5.8 -157.5Z"/></g><path d="M-2 -146.7H2V-130H-2Z" fill="#5C5E6D" fill-opacity=".16"/><path d="M-2 -146.1V-130M2 -146.1V-130" fill="none" stroke="#5C5E6D" stroke-width="1" stroke-opacity=".5"/><g fill="#F2F3F6" stroke="#5C5E6D" stroke-width=".8" stroke-opacity=".55"><circle cx="0" cy="-141.4" r="1.3"/><circle cx="0" cy="-134.4" r="1.3"/></g><path d="M6 -142.4H11.9L13.4 -140.7L8.9 -136.7L4.5 -140.7Z" fill="#1B175A"/><path d="M4.8 -140.7H13.1M7.4 -142.2L8.9 -140.7L10.4 -142.2M8.9 -140.4V-137.4" fill="none" stroke="#B9BBC6" stroke-width=".7" stroke-opacity=".85"/></g></g><g id="s3"><path d="M-21.1 -186.5C-24.4 -204.4-8.8 -212.4 2 -212.4C14.7 -212.4 24.4 -202.3 21.1 -176.5C19.5 -187.2 14.7 -194.7 6.8 -196.8C0 -198.5-12 -196-21.1 -186.5Z" fill="url(#kh)"/><path d="M-15 -194C-12.5 -199-5.5 -204 4.5 -204" fill="none" stroke="#6A5550" stroke-width="1.7" stroke-opacity=".5"/></g><g id="s4">----------------
<g stroke="#1B175A" stroke-width="1.6"><rect x="-5.2" y="-10.5" width="10.4" height="21" rx="2.2" fill="#FFFCFC"/><rect x="-3.6" y="-7.4" width="7.2" height="13.6" rx="1" fill="#82CAFB" stroke="none"/><path d="M-1.8 -8.6H1.8" fill="none" stroke-width="1.2" stroke-linecap="round"/></g></g><g id="ks" stroke="none"><path d="M-9.8 .6L-10-6C-10.2-11.4-9.6-14.6-7.6-15.6L-1-16.2C3.4-16 6.2-14.6 7.4-12C8.8-8.2 12-5.2 15.6-3.4C17.2-2.7 17.4-.2 16.2 .6Z" fill="#1B175A"/><path d="M-7.6-3L-7.8-6.4C-8-11-7.4-13.4-5.8-14.2L-1.2-14.6C2.4-14.4 4.6-13.2 5.6-11C7-7.6 10-5.4 13.2-3Z" fill="#FFFCFC"/></g><g id="s5"><path d="M4 1.4C5.4 2.8 6 4.4 6 6C6 8 5.2 9.8 3.6 11.2C4.8 9.6 5.2 7.8 5.2 6C5.2 4.4 4.8 2.8 4 1.4Z" fill="#8E5C3D" fill-opacity=".4" stroke="none"/></g><g id="s6"><g stroke="#48291A" stroke-width="1.8" stroke-linejoin="round"><path d="M-5.4 -1.6C-6.6 1.6-6.4 5.4-5 7.6C-4.2 9.6-2.2 9.6-1.6 7.8C-1 9.8 1 10 1.8 8.2C2.6 10 4.4 9.6 5 7.6C6 5.4 6.4 1.6 5.4 -1.6" fill="#BE8C64"/><path d="M-5 2.6C-7.8 2.4-8.8 5.4-7.2 7.2C-6 8.4-4.2 7.8-4 6.2Z" fill="#BE8C64"/><path d="M-5.2 3C-2.2 5 2.6 5 5.4 3" fill="none" stroke="#5C3722" stroke-width="1.1" stroke-opacity=".7" stroke-linecap="round"/></g></g></defs>
<rect width="400" height="300" fill="url(#svWC_sk)"/><rect y="238" width="400" height="62" fill="#EAE7F2"/><circle cx="44" cy="52" r="29" fill="#FFCB8E" opacity=".35"/><circle cx="44" cy="52" r="20" fill="#FFCB8E"/><circle cx="41" cy="49" r="12" fill="#FFE2B5"/><path d="M160 44h48c6.4 0 8 -9.6 -1.6 -11.2c-1.6 -9.6 -14.4 -11.2 -20.8 -4.8c-4.8 -8 -20.8 -8 -25.6 16z" fill="#FFFCFC" opacity="1"/><path d="M300 74h36c4.8 0 6 -7.2 -1.2 -8.4c-1.2 -7.2 -10.8 -8.4 -15.6 -3.6c-3.6 -6 -15.6 -6 -19.2 12z" fill="#FFFCFC" opacity="0.9"/><rect x="250" y="140" width="140" height="100" fill="#D6EAFD" stroke="#1B175A" stroke-width="3.2"/><path d="M253 154H387" stroke="#FFFCFC" stroke-width="1.6" opacity=".7"/><path d="M253 168H387" stroke="#FFFCFC" stroke-width="1.6" opacity=".7"/><path d="M253 182H387" stroke="#FFFCFC" stroke-width="1.6" opacity=".7"/><path d="M253 196H387" stroke="#FFFCFC" stroke-width="1.6" opacity=".7"/><path d="M253 210H387" stroke="#FFFCFC" stroke-width="1.6" opacity=".7"/><path d="M253 224H387" stroke="#FFFCFC" stroke-width="1.6" opacity=".7"/><path d="M238 144L320 94L402 144Z" fill="#F6A078" stroke="#1B175A" stroke-width="3.2" stroke-linejoin="round"/><rect x="302" y="184" width="34" height="56" rx="3" fill="#E88A62" stroke="#1B175A" stroke-width="3.2"/><circle cx="329" cy="212" r="2.8" fill="#FFCB8E"/><rect x="266" y="156" width="34" height="30" rx="4" fill="#B3DAFB" stroke="#1B175A" stroke-width="3.5"/><path d="M270 182L284.7 160L296 160Z" fill="#D6EAFD" opacity=".6"/><path d="M283 156V186M266 171H300" stroke="#1B175A" stroke-width="3"/><rect x="340" y="156" width="34" height="30" rx="4" fill="#B3DAFB" stroke="#1B175A" stroke-width="3.5"/><path d="M344 182L358.7 160L370 160Z" fill="#D6EAFD" opacity=".6"/><path d="M357 156V186M340 171H374" stroke="#1B175A" stroke-width="3"/><rect x="294" y="238" width="50" height="8" rx="2" fill="#F3C7A6" stroke="#1B175A" stroke-width="2.4"/><g transform="translate(152 240) scale(0.56)"><path d="M-4 0V-40H4V0Z" fill="#DDA07A" stroke="#1B175A" stroke-width="2.5"/><path d="M0 -92C-22 -92 -30 -74 -26 -62C-36 -56 -32 -36 -16 -36H16C32 -36 36 -56 26 -62C30 -74 22 -92 0 -92Z" fill="#A9D2F7" stroke="#1B175A" stroke-width="3" stroke-linejoin="round"/><path d="M-12 -70C-8 -78 0 -80 6 -78" fill="none" stroke="#FFFCFC" stroke-width="3" stroke-linecap="round" opacity=".8"/></g><path d="M288 246H330L340 300H236Z" fill="#D9D6E6"/><path d="M0 272H400" stroke="#FFFCFC" stroke-width="3" opacity=".8"/><ellipse cx="214" cy="293" rx="26" ry="6" fill="#D9D6E6" opacity=".75"/><g transform="translate(214 292) scale(0.62)" stroke-linejoin="round" stroke-linecap="round"><use href="#s0"/><use href="#s1"/><g transform="scale(-1 1)">----------------
<use href="#qwor0" fill="#A97350" stroke="#48291A" stroke-width="3" stroke-linejoin="round"/><g transform="translate(31 -172) rotate(147)"><use href="#s4"/><use href="#s6"/><use href="#s5"/></g></g><use href="#qwor1" fill="#A97350" stroke="#48291A" stroke-width="3" stroke-linejoin="round"/><g transform="translate(32 -104) rotate(8)"><use href="#s6"/><use href="#s5"/></g><use href="#qwor3" fill="#A97350"/><use href="#s2"/><g fill="#A97350" stroke="#48291A" stroke-width="1.4"><ellipse cx="-22.4" cy="-182" rx="3.6" ry="4.6"/><ellipse cx="22.4" cy="-182" rx="3.6" ry="4.6"/></g><use href="#qwor2" fill="url(#kj)" stroke="#48291A" stroke-width="2.2"/><path d="M-3.6 -189.8C-7.2 -190.8-12.1 -191.3-15.6 -189.9C-12.5 -193-8 -193.2-3.8 -192.4C-2.7 -192.1-2.7 -189.8-3.6 -189.8ZM3.6 -189.8C7.2 -190.8 12.1 -191.3 15.6 -189.9C12.5 -193 8 -193.2 3.8 -192.4C2.7 -192.1 2.7 -189.8 3.6 -189.8Z" fill="#1C120F"/><path d="M-14.4 -185.4C-12-188-5.6-188-3.2 -185.4C-5.6 -182.6-12 -182.6-14.4 -185.4ZM14.4 -185.4C12-188 5.6-188 3.2 -185.4C5.6 -182.6 12 -182.6 14.4 -185.4Z" fill="#FFF8F3" stroke="#1E110D" stroke-width="1.6"/><g fill="#2A1710"><circle cx="-8.6" cy="-185" r="2.4"/><circle cx="8.6" cy="-185" r="2.4"/></g><path d="M-6.2 -171.6C-4 -172.8 4 -172.8 6.2 -171.6C4.2 -168.2-4.2 -168.2-6.2 -171.6Z" fill="#A6455C" stroke="#1C120F" stroke-width="1"/><use href="#s3"/></g><ellipse cx="78" cy="291" rx="34" ry="7" fill="#D9D6E6" opacity=".75"/><g transform="translate(78 290) scale(0.848)" stroke-linejoin="round" stroke-linecap="round"><use href="#s0"/><use href="#s1"/><g transform="scale(-1 1)">----------------
<use href="#qwor1" fill="#935A3B" stroke="#1F110A" stroke-width="3" stroke-linejoin="round"/><path d="M33.1-140.1C33.5-138.4 34.8-133.4 35.3-129.9C35.7-126.3 35.9-122.7 35.8-119C35.8-115.4 35-109.8 34.9-108" fill="none" stroke="#A16847" stroke-width="2.2" stroke-opacity=".55" stroke-linecap="round"/><path d="M26-137.6C26.4-136.2 27.9-131.9 28.6-128.8C29.2-125.6 29.6-122.3 29.9-118.9C30.1-115.5 29.9-110.2 29.9-108.5" fill="none" stroke="#6F4029" stroke-width="2.4" stroke-opacity=".4" stroke-linecap="round"/><g transform="translate(32 -104) rotate(8)">----------------
<g stroke="#1F110A" stroke-width="1.8"><path d="M-4.1 -.5C-6.3 1.2-8.1 3.7-9 6.2C-9.7 8.1-7.7 9.2-6.8 7.7C-6.1 6.2-5.4 5.2-4.5 4.5Z" fill="#9C6544"/><path d="M-4.5 -2.6C-5.4 .8-5.9 4.1-5.9 7.5L-5.9 10.4A1.4 1.3 0 0 0-3.2 10.4L-3.2 12.5A1.4 1.3 0 0 0-.4 12.5L-.4 13.3A1.4 1.3 0 0 0 2.4 13.3L2.4 12.1A1.4 1.3 0 0 0 5.1 12.1L5.1 7.5C5.1 4.1 5 .8 4 -2.6" fill="#9C6544"/><path d="M2.4 -3.6C3.6 .2 4.1 4 4.1 7.5L4.1 11.8C3.4 12.6 2.4 12.4 2.4 11.6L2.4 7.5C2.4 4 2 .2 1 -3.4Z" fill="#6F4029" fill-opacity=".38" stroke="none"/><path d="M-3.2 10.4V7.6M-.4 12.5V7.8M2.4 13.3V7.6" fill="none" stroke="#2D170E" stroke-width="1" stroke-opacity=".7" stroke-linecap="round"/></g></g></g>----------------
<use href="#qwor0" fill="#935A3B" stroke="#1F110A" stroke-width="3" stroke-linejoin="round"/><path d="M28.8-147.7C29.3-148.3 31.5-149.9 32.3-151.6C33.1-153.3 33.7-155.4 33.5-157.9C33.3-160.5 31.6-165.3 31.2-166.8" fill="none" stroke="#A16847" stroke-width="2.2" stroke-opacity=".55" stroke-linecap="round"/><path d="M33.3-141.6C34.2-142.9 37.6-146.2 38.6-149C39.6-151.9 39.9-155.2 39.4-158.5C38.9-161.9 36.3-167.3 35.7-169.1" fill="none" stroke="#6F4029" stroke-width="2.4" stroke-opacity=".4" stroke-linecap="round"/><g transform="translate(31 -172) rotate(147)"><use href="#s4"/>----------------
<g stroke="#1F110A" stroke-width="1.8"><path d="M-5.4 -1.6C-6.6 1.6-6.4 5.4-5 7.6C-4.2 9.6-2.2 9.6-1.6 7.8C-1 9.8 1 10 1.8 8.2C2.6 10 4.4 9.6 5 7.6C6 5.4 6.4 1.6 5.4 -1.6" fill="#9C6544"/><path d="M-5 2.6C-7.8 2.4-8.8 5.4-7.2 7.2C-6 8.4-4.2 7.8-4 6.2Z" fill="#9C6544"/><path d="M3.2 -1.6C4.2 1.6 4.2 5.2 3.4 7.6C4.2 8.6 5.2 7.6 5.6 6C6.2 3.6 6.2 .6 5.4 -1.6Z" fill="#6F4029" fill-opacity=".38" stroke="none"/><path d="M-5.2 3C-2.2 5 2.6 5 5.4 3" fill="none" stroke="#2D170E" stroke-width="1.1" stroke-opacity=".7"/></g></g><use href="#qwor3" fill="#935A3B"/><path d="M3.4 -170C4 -158 4.8 -150 5.6 -145H8.4C7.6 -150 6.8 -158 6.2 -171Z" fill="#59321F" fill-opacity=".35"/><path d="M-6.4 -163.8C-4.2 -157.6 4.2 -157.6 6.4 -163.8L6.8 -158.4C4 -155.2-4 -155.2-6.8 -158.4Z" fill="#59321F" fill-opacity=".5"/><use href="#s2"/>----------------
<g><g fill="#935A3B" stroke="#1F110A" stroke-width="1.4"><path d="M-20.1 -186.5C-23.7 -189.1-26.4 -186.5-25.7 -183.2C-25 -179.9-23.2 -177.6-20.1 -177.6Z"/><path d="M20.1 -186.5C23.7 -189.1 26.4 -186.5 25.7 -183.2C25 -179.9 23.2 -177.6 20.1 -177.6Z"/></g><path d="M-21.9 -185C-23.7 -184.6-24.1 -182.4-23 -180.6M21.9 -185C23.7 -184.6 24.1 -182.4 23 -180.6" fill="none" stroke="#2D170E" stroke-width="1" stroke-opacity=".55"/><use href="#qwor2" fill="url(#kj5)" stroke="#1F110A" stroke-width="2.2"/><path d="M18.3 -184.7C18.3 -175.1 14.3 -167.8 7.1 -163C4.9 -161.5 2.7 -160.4 0 -160C8 -164.4 15.2 -172.4 15.6 -184.7Z" fill="#6F4029" fill-opacity=".28"/><path d="M-2.7 -203.8C7.2 -202.3 15.2 -197.2 18.8 -188.4L17 -187.6C15.2 -194.2 7.2 -199-2.7 -201.9Z" fill="#6A412A" fill-opacity=".14"/><g fill="#F0877A" fill-opacity=".3"><ellipse cx="-13.4" cy="-175.5" rx="4.4" ry="2.6"/><ellipse cx="13.4" cy="-175.5" rx="4.4" ry="2.6"/></g></g>----------------
<g><path d="M-3.6 -189.8C-7.2 -190.8-12.1 -191.3-15.6 -189.9C-12.5 -193.2-7.6 -193.4-3.8 -192.6C-2.7 -192.3-2.7 -189.8-3.6 -189.8Z" fill="#1C120F"/><path d="M3.6 -189.8C7.2 -190.8 12.1 -191.3 15.6 -189.9C12.5 -193.2 7.6 -193.4 3.8 -192.6C2.7 -192.3 2.7 -189.8 3.6 -189.8Z" fill="#1C120F"/><use href="#ky" transform="translate(-7.5 -185)"/><use href="#ky" transform="translate(9.9 -185) scale(-1 1)"/><path d="M1.6 -183.6C2.5 -180.6 3.1 -178.4 2.5 -176.9" fill="none" stroke="#6F4029" stroke-width="1.2" stroke-opacity=".6"/><path d="M-2.2 -176.7C-1.1 -175.5 1.1 -175.5 2.2 -176.7" fill="none" stroke="#2D170E" stroke-width="1.1" stroke-opacity=".8"/></g>----------------
<g><path d="M-6.6 -171.8C-4.2 -173.2-1.8 -172.6 0 -172.2C1.8 -172.6 4.2 -173.2 6.6 -171.8C4.4 -168.4-4.4 -168.4-6.6 -171.8Z" fill="#A6455C" stroke="#1C120F" stroke-width="1"/><path d="M-5 -169.9C-2.4 -168.1 2.4 -168.1 5 -169.9C3.6 -167.1-3.6 -167.1-5 -169.9Z" fill="#D07683"/></g><use href="#s3"/></g><path d="M106 162Q149 108 192 194" fill="none" stroke="#E88A62" stroke-width="3" stroke-dasharray="3 9" stroke-linecap="round"/><path d="M116 152.4Q120.2 158 116 163.6" fill="none" stroke="#E88A62" stroke-width="2.1" stroke-linecap="round"/><path d="M120.2 148.2Q127.2 158 120.2 167.8" fill="none" stroke="#E88A62" stroke-width="2.1" stroke-linecap="round"/><path d="M184 181.6Q180.7 186 184 190.4" fill="none" stroke="#82CAFB" stroke-width="1.65" stroke-linecap="round"/><path d="M180.7 178.3Q175.2 186 180.7 193.7" fill="none" stroke="#82CAFB" stroke-width="1.65" stroke-linecap="round"/><path d="M180 110L182.24 115.76L188 118L182.24 120.24L180 126L177.76 120.24L172 118L177.76 115.76Z" fill="#F6A078"/><path d="M372 116L373.68 120.32L378 122L373.68 123.68L372 128L370.32 123.68L366 122L370.32 120.32Z" fill="#82CAFB"/>
</svg>
